<svg xmlns="http://www.w3.org/2000/svg" width="202" height="67" viewBox="0 0 202 67">
    <g fill="none" fill-rule="nonzero">
        <g fill="#FFF">
            <path d="M185.394 0H16.05c-.617 0-1.227 0-1.843.003-.515.004-1.026.013-1.547.022-1.13.013-2.258.112-3.373.296a11.258 11.258 0 0 0-3.2 1.05 10.835 10.835 0 0 0-2.724 1.974A10.485 10.485 0 0 0 1.379 6.06 11.019 11.019 0 0 0 .327 9.248a21.658 21.658 0 0 0-.301 3.354C.01 13.115.008 13.63 0 14.144v38.717c.008.52.01 1.024.026 1.544.013 1.124.114 2.245.301 3.353.185 1.11.54 2.186 1.052 3.19a10.4 10.4 0 0 0 1.984 2.704 10.56 10.56 0 0 0 2.724 1.974c1.008.51 2.086.866 3.2 1.057a22.76 22.76 0 0 0 3.373.296 70.4 70.4 0 0 0 1.547.018c.616.003 1.226.003 1.843.003h169.344c.605 0 1.22 0 1.824-.003.513 0 1.04-.007 1.552-.018a22.461 22.461 0 0 0 3.367-.296c1.117-.192 2.2-.549 3.212-1.057a10.565 10.565 0 0 0 2.722-1.974 10.714 10.714 0 0 0 1.99-2.704c.508-1.005.859-2.08 1.041-3.19.188-1.108.293-2.23.313-3.353.006-.52.006-1.024.006-1.544.014-.609.014-1.214.014-1.832V15.973c0-.613 0-1.222-.014-1.829 0-.513 0-1.029-.006-1.542a22.516 22.516 0 0 0-.313-3.354 11.046 11.046 0 0 0-1.042-3.188 10.858 10.858 0 0 0-4.711-4.69 11.432 11.432 0 0 0-3.212-1.05 22.064 22.064 0 0 0-3.367-.296c-.513-.008-1.039-.018-1.552-.02C186.613 0 185.998 0 185.394 0z"/>
            <path d="M14.215 65.534c-.512 0-1.013-.006-1.522-.018a21.46 21.46 0 0 1-3.146-.273 9.939 9.939 0 0 1-2.789-.917 9.098 9.098 0 0 1-2.352-1.703 8.915 8.915 0 0 1-1.717-2.34 9.551 9.551 0 0 1-.915-2.775 20.692 20.692 0 0 1-.28-3.14c-.01-.354-.024-1.53-.024-1.53V14.144s.014-1.158.024-1.498a20.62 20.62 0 0 1 .279-3.136c.16-.969.47-1.908.915-2.784a9.003 9.003 0 0 1 1.709-2.341 9.367 9.367 0 0 1 2.36-1.713 9.836 9.836 0 0 1 2.783-.911c1.044-.17 2.1-.262 3.157-.275l1.52-.02H187.21l1.537.02c1.048.013 2.094.104 3.128.273.979.166 1.926.475 2.813.918a9.393 9.393 0 0 1 4.065 4.053c.439.87.743 1.802.901 2.762.175 1.045.273 2.102.293 3.161.005.475.005.984.005 1.491.013.628.013 1.226.013 1.829v35.056c0 .608 0 1.202-.013 1.8 0 .545 0 1.044-.007 1.558a21.222 21.222 0 0 1-.288 3.104 9.58 9.58 0 0 1-.909 2.798 9.182 9.182 0 0 1-1.71 2.32 9.11 9.11 0 0 1-2.355 1.713 9.901 9.901 0 0 1-2.808.921c-1.04.17-2.092.26-3.146.273a66.23 66.23 0 0 1-1.51.018l-1.825.004-171.179-.004z"/>
        </g>
        <g fill="#000">
            <path d="M42.078 33.315a8.611 8.611 0 0 1 4.125-7.233 8.88 8.88 0 0 0-6.987-3.758c-2.94-.307-5.789 1.75-7.287 1.75-1.527 0-3.833-1.72-6.316-1.668a9.31 9.31 0 0 0-7.83 4.751c-3.386 5.832-.86 14.404 2.383 19.118 1.622 2.309 3.518 4.888 6 4.796 2.428-.1 3.335-1.54 6.265-1.54 2.904 0 3.755 1.54 6.286 1.482 2.606-.042 4.247-2.319 5.813-4.65a19.055 19.055 0 0 0 2.658-5.386 8.329 8.329 0 0 1-5.11-7.662zM37.296 19.224a8.46 8.46 0 0 0 1.951-6.08 8.692 8.692 0 0 0-5.615 2.89 8.05 8.05 0 0 0-2.002 5.855 7.19 7.19 0 0 0 5.666-2.665z"/>
        </g>
        <g fill="#000">
            <path d="M71.208 45.459H63.24l-1.913 5.622h-3.375l7.547-20.8h3.506l7.547 20.8H73.12l-1.912-5.622zm-7.143-2.594h6.316l-3.113-9.125h-.088l-3.115 9.125zM92.851 43.5c0 4.712-2.535 7.74-6.36 7.74a5.172 5.172 0 0 1-4.795-2.654h-.072v7.512h-3.129V35.916h3.028v2.522h.058a5.412 5.412 0 0 1 4.853-2.68c3.868 0 6.417 3.042 6.417 7.741zm-3.215 0c0-3.071-1.595-5.09-4.028-5.09-2.39 0-3.998 2.062-3.998 5.09 0 3.055 1.608 5.101 3.998 5.101 2.433 0 4.028-2.004 4.028-5.102zM109.626 43.5c0 4.712-2.535 7.74-6.36 7.74a5.172 5.172 0 0 1-4.796-2.654h-.072v7.512h-3.129V35.916h3.028v2.522h.058a5.412 5.412 0 0 1 4.853-2.68c3.868 0 6.418 3.042 6.418 7.741zm-3.216 0c0-3.071-1.595-5.09-4.027-5.09-2.39 0-3.998 2.062-3.998 5.09 0 3.055 1.607 5.101 3.998 5.101 2.432 0 4.027-2.004 4.027-5.102zM120.711 45.286c.232 2.062 2.246 3.417 4.997 3.417 2.637 0 4.534-1.355 4.534-3.215 0-1.614-1.144-2.58-3.853-3.243l-2.71-.65c-3.838-.922-5.62-2.709-5.62-5.607 0-3.589 3.144-6.054 7.605-6.054 4.419 0 7.447 2.465 7.549 6.054h-3.158c-.19-2.076-1.914-3.329-4.434-3.329-2.52 0-4.244 1.268-4.244 3.113 0 1.47 1.101 2.336 3.795 2.998l2.304.563c4.288 1.01 6.069 2.723 6.069 5.766 0 3.891-3.114 6.329-8.068 6.329-4.636 0-7.766-2.38-7.968-6.143h3.202zM140.3 32.327v3.589h2.898v2.465h-2.899v8.36c0 1.3.58 1.904 1.855 1.904.344-.006.687-.03 1.029-.072v2.45a8.633 8.633 0 0 1-1.738.145c-3.085 0-4.289-1.154-4.289-4.095v-8.692h-2.216v-2.465h2.216v-3.589h3.143zM144.874 43.5c0-4.772 2.825-7.77 7.229-7.77 4.418 0 7.23 2.998 7.23 7.77 0 4.784-2.797 7.77-7.23 7.77-4.432 0-7.229-2.986-7.229-7.77zm11.27 0c0-3.274-1.507-5.206-4.041-5.206-2.535 0-4.043 1.947-4.043 5.205 0 3.286 1.508 5.204 4.043 5.204 2.534 0 4.042-1.918 4.042-5.204zM161.912 35.916h2.983v2.581h.073a3.632 3.632 0 0 1 3.665-2.74c.36-.001.72.038 1.072.116v2.912a4.394 4.394 0 0 0-1.405-.188 3.16 3.16 0 0 0-2.437.998 3.127 3.127 0 0 0-.823 2.491v8.995h-3.128V35.916zM184.129 46.627c-.421 2.753-3.116 4.642-6.563 4.642-4.433 0-7.185-2.956-7.185-7.698 0-4.756 2.766-7.841 7.054-7.841 4.216 0 6.868 2.882 6.868 7.48v1.066h-10.764v.188a3.938 3.938 0 0 0 1.075 3.069 3.98 3.98 0 0 0 3.025 1.227 3.45 3.45 0 0 0 3.52-2.133h2.97zM173.553 42.1h7.62a3.637 3.637 0 0 0-1.024-2.737 3.674 3.674 0 0 0-2.714-1.112 3.868 3.868 0 0 0-2.747 1.12 3.83 3.83 0 0 0-1.135 2.729z"/>
        </g>
        <g fill="#000">
            <path d="M63.674 14.624a4.455 4.455 0 0 1 3.544 1.37 4.408 4.408 0 0 1 1.182 3.597c0 3.193-1.734 5.028-4.726 5.028h-3.628v-9.995h3.628zm-2.068 8.581H63.5a3.166 3.166 0 0 0 2.516-1.013 3.132 3.132 0 0 0 .796-2.581 3.14 3.14 0 0 0-.81-2.564 3.174 3.174 0 0 0-2.502-1.01h-1.894v7.168zM70.162 20.844a3.568 3.568 0 0 1 1.682-3.376 3.606 3.606 0 0 1 3.787 0 3.568 3.568 0 0 1 1.68 3.376 3.568 3.568 0 0 1-1.678 3.382 3.607 3.607 0 0 1-3.791 0 3.568 3.568 0 0 1-1.68-3.382zm5.611 0c0-1.635-.738-2.59-2.033-2.59-1.3 0-2.032.955-2.032 2.59 0 1.648.731 2.597 2.032 2.597 1.295 0 2.033-.955 2.033-2.597zM86.815 24.619h-1.552l-1.566-5.555h-.119l-1.56 5.555h-1.537l-2.09-7.543h1.518l1.358 5.756h.112l1.558-5.756h1.435l1.559 5.756h.118l1.351-5.756h1.496zM90.653 17.076h1.44v1.199h.112a2.27 2.27 0 0 1 2.262-1.344c.747-.056 1.48.229 1.99.775.51.545.744 1.293.634 2.03v4.883h-1.496v-4.51c0-1.211-.53-1.814-1.636-1.814a1.743 1.743 0 0 0-1.346.542 1.725 1.725 0 0 0-.464 1.37v4.412h-1.496v-7.543zM99.475 14.132h1.495v10.487h-1.495zM103.05 20.844a3.568 3.568 0 0 1 1.681-3.376 3.607 3.607 0 0 1 3.788 0 3.568 3.568 0 0 1 1.681 3.376 3.568 3.568 0 0 1-1.68 3.382 3.607 3.607 0 0 1-3.79 0 3.568 3.568 0 0 1-1.68-3.382zm5.61 0c0-1.635-.738-2.59-2.033-2.59-1.3 0-2.032.955-2.032 2.59 0 1.648.732 2.597 2.032 2.597 1.295 0 2.034-.955 2.034-2.597zM111.775 22.486c0-1.358 1.016-2.14 2.82-2.252l2.052-.118v-.65c0-.797-.529-1.247-1.552-1.247-.835 0-1.413.305-1.58.838h-1.448c.153-1.295 1.378-2.126 3.098-2.126 1.9 0 2.972.941 2.972 2.534v5.154h-1.44v-1.06h-.119a2.554 2.554 0 0 1-2.277 1.184 2.297 2.297 0 0 1-1.766-.57 2.273 2.273 0 0 1-.76-1.687zm4.872-.645v-.63l-1.85.117c-1.045.07-1.518.423-1.518 1.088 0 .679.592 1.074 1.406 1.074.481.049.962-.1 1.332-.41.37-.311.598-.758.63-1.239zM120.103 20.844c0-2.383 1.231-3.893 3.146-3.893a2.5 2.5 0 0 1 2.325 1.323h.111v-4.142h1.496v10.487h-1.433v-1.192h-.119a2.634 2.634 0 0 1-2.38 1.316c-1.928 0-3.146-1.51-3.146-3.899zm1.545 0c0 1.6.758 2.563 2.025 2.563 1.261 0 2.04-.977 2.04-2.556 0-1.572-.787-2.563-2.04-2.563-1.259 0-2.025.97-2.025 2.556zM133.37 20.844a3.568 3.568 0 0 1 1.682-3.376 3.606 3.606 0 0 1 3.787 0 3.568 3.568 0 0 1 1.68 3.376 3.568 3.568 0 0 1-1.678 3.382 3.607 3.607 0 0 1-3.791 0 3.568 3.568 0 0 1-1.68-3.382zm5.611 0c0-1.635-.738-2.59-2.033-2.59-1.3 0-2.032.955-2.032 2.59 0 1.648.731 2.597 2.032 2.597 1.295 0 2.033-.955 2.033-2.597zM142.527 17.076h1.44v1.199h.112a2.27 2.27 0 0 1 2.262-1.344c.747-.056 1.479.229 1.99.775.51.545.743 1.293.633 2.03v4.883h-1.496v-4.51c0-1.211-.529-1.814-1.635-1.814a1.743 1.743 0 0 0-1.347.542 1.725 1.725 0 0 0-.463 1.37v4.412h-1.496v-7.543zM157.417 15.198v1.913h1.642v1.253h-1.642v3.879c0 .79.327 1.136 1.072 1.136.19 0 .381-.012.57-.035v1.24c-.268.048-.54.074-.813.076-1.664 0-2.326-.582-2.326-2.036v-4.26h-1.204v-1.253h1.204v-1.913h1.497zM161.103 14.132h1.483v4.156h.118a2.334 2.334 0 0 1 2.311-1.35 2.503 2.503 0 0 1 1.97.794c.505.544.74 1.283.64 2.017v4.87h-1.497v-4.503c0-1.204-.564-1.815-1.62-1.815a1.776 1.776 0 0 0-1.402.515c-.368.369-.553.88-.507 1.398v4.405h-1.496V14.132zM176.348 22.582a3.077 3.077 0 0 1-3.284 2.182 3.45 3.45 0 0 1-2.657-1.14 3.415 3.415 0 0 1-.845-2.753c-.134-1 .173-2.007.844-2.764a3.504 3.504 0 0 1 2.651-1.176c2.11 0 3.382 1.434 3.382 3.802v.52h-5.353v.083c-.047.56.145 1.113.53 1.524.383.412.924.643 1.489.637a1.82 1.82 0 0 0 1.803-.915h1.44zm-5.262-2.43h3.829a1.814 1.814 0 0 0-.498-1.389 1.833 1.833 0 0 0-1.368-.565 1.944 1.944 0 0 0-1.396.565c-.37.368-.574.868-.567 1.389z"/>
        </g>
    </g>
</svg>
