<svg xmlns="http://www.w3.org/2000/svg" width="2560" height="500" viewBox="0 0 2560 500">
    <path fill="#FFF" fill-rule="evenodd" d="M349.905 410.69c190.4-25.965 283.92-126.2 376.185-126.2 176.884 0 273.956 37.138 372.976-15.336 99.019-52.473 91.841-152.63 181.49-181.254 89.65-28.623 227.779 19.407 313.144 14.476 85.366-4.931 92.505-22.078 167.238-70.865 74.733-48.787 139.181-31.54 180.77-10.643 41.588 20.896 150.232 101.172 329.363 111.316 119.42 6.762 215.5-17.742 288.237-73.513L2560 500H0V284.49c106.336 101.442 222.97 143.509 349.905 126.2z"/>
</svg>
