<?xml version="1.0" encoding="utf-8"?>
<!-- Generator: Adobe Illustrator 23.0.1, SVG Export Plug-In . SVG Version: 6.00 Build 0)  -->
<svg version="1.1" id="Layer_1" xmlns="http://www.w3.org/2000/svg" xmlns:xlink="http://www.w3.org/1999/xlink" x="0px" y="0px"
	 viewBox="0 0 47.66 75.98" style="enable-background:new 0 0 47.66 75.98;" xml:space="preserve">
<style type="text/css">
	.st0{fill:#FFCC05;}
</style>
<path d="M47.55,7.45c-0.48-3.49-3.1-6.36-6.51-7.18c-0.33-0.08-0.66-0.13-1-0.18L39.56,0H8.15L7.8,0.05
	C7.56,0.08,7.32,0.12,7.08,0.16C3.52,0.94,1.23,3.12,0.27,6.64C0.15,7.08,0.11,7.5,0.07,7.92c-0.01,0.17-0.03,0.34-0.05,0.5L0,8.48
	V67.5l0.01,0.08c0.02,0.16,0.04,0.33,0.05,0.49c0.04,0.41,0.09,0.84,0.21,1.28c0.96,3.52,3.25,5.7,6.81,6.47
	c0.24,0.05,0.48,0.09,0.72,0.12l0.35,0.04h31.42l0.5-0.09c0.33-0.05,0.66-0.11,0.99-0.18c3.41-0.81,6.03-3.7,6.51-7.18l0.1-0.65V8.1
	L47.55,7.45z M29.64,3.53c0.88,0,1.6,0.72,1.6,1.6s-0.72,1.6-1.6,1.6s-1.6-0.72-1.6-1.6C28.05,4.24,28.76,3.53,29.64,3.53z
	 M17.97,3.53h6.28c0.88,0,1.6,0.72,1.6,1.6s-0.72,1.6-1.6,1.6h-6.28c-0.88,0-1.6-0.72-1.6-1.6C16.38,4.24,17.09,3.53,17.97,3.53z
	 M8.84,5.16h1.19c0.72,0.05,0.83,0.4,0.87,0.52c0.64,2.52,2.78,4.16,5.43,4.17c0.97,0,13.93,0,14.9,0c2.65-0.01,4.79-1.64,5.42-4.11
	c0.05-0.18,0.16-0.51,0.76-0.58h1.38c0.13,0,0.26,0,0.38,0.01c0.81,0.03,1.5,0.3,2.1,0.83c0.84,0.73,1.22,1.62,1.22,2.81
	c0,6.89,0,16.21,0,24.26v7.02c0,0,0,20.32,0,27.1c0,1.19-0.39,2.09-1.22,2.81c-0.6,0.52-1.28,0.79-2.09,0.83
	c-0.13,0-0.26,0.01-0.38,0.01c0,0-24.57,0-29.95,0c-1.16,0-2.04-0.36-2.76-1.13c-0.6-0.65-0.9-1.4-0.9-2.25c0-9.12,0-18.25,0-27.36
	s0-22.42,0-31.54c0-0.85,0.3-1.6,0.9-2.25C6.8,5.52,7.67,5.16,8.84,5.16"/>
<g>
	<g>
		<g>
			<path class="st0" d="M26.34,35.5h-5c-1.41,0-2.55-1.17-2.55-2.61c0-1.41,1.11-2.53,2.55-2.53h5.05c1.38,0,2.53,1.14,2.53,2.53
				h5.29c0-4.26-3.45-7.74-7.71-7.82v-4.48h-5.29v4.48c-4.26,0.08-7.71,3.56-7.71,7.79c0,4.34,3.53,7.9,7.85,7.9h5
				c1.41,0,2.55,1.14,2.55,2.55c0,1.41-1.14,2.55-2.55,2.55h-5.05c-1.38,0-2.53-1.14-2.53-2.55l-5.29,0.03
				c0,4.26,3.45,7.74,7.71,7.79v3.15h5.29v-3.15c4.26-0.08,7.71-3.56,7.71-7.82C34.18,39.03,30.65,35.5,26.34,35.5z"/>
		</g>
	</g>
</g>
</svg>
