<svg xmlns="http://www.w3.org/2000/svg" width="28" height="28" viewBox="0 0 28 28">
    <path fill="#FFF" fill-rule="nonzero" d="M25.2 0H2.8C1.213 0 0 1.213 0 2.8v22.4C0 26.787 1.213 28 2.8 28h12.6c.28 0 .467-.187.467-.467V17.267c0-.28-.187-.467-.467-.467h-3.267V14H15.4c.28 0 .467-.187.467-.467V9.8c0-2.987 2.146-5.133 5.133-5.133h2.333v2.8h-1.866c-1.587 0-2.8 1.213-2.8 2.8v3.266c0 .28.186.467.466.467h4.014l-1.027 2.8h-2.987c-.28 0-.466.187-.466.467v10.266c0 .28.186.467.466.467H25.2c1.587 0 2.8-1.213 2.8-2.8V2.8C28 1.213 26.787 0 25.2 0z"/>
</svg>
