<?xml version="1.0" encoding="utf-8"?>
<!-- Generator: Adobe Illustrator 23.0.1, SVG Export Plug-In . SVG Version: 6.00 Build 0)  -->
<svg version="1.1" id="Layer_1" xmlns="http://www.w3.org/2000/svg" xmlns:xlink="http://www.w3.org/1999/xlink" x="0px" y="0px"
	 viewBox="0 0 69.48 46.39" style="enable-background:new 0 0 69.48 46.39;" xml:space="preserve">
<style type="text/css">
	.st0{fill-rule:evenodd;clip-rule:evenodd;}
	.st1{fill:#FFFFFF;}
</style>
<g>
	<g>
		<path class="st0" d="M9.76,32.29c0.42,0.76,1.15,1.38,2.06,1.62l46.13,12.36c1.78,0.48,3.62-0.59,4.1-2.37l7.32-27.33
			c0.48-1.78-0.59-3.62-2.37-4.1L20.88,0.11c-0.91-0.24-1.84-0.08-2.59,0.37l0,0l-7.66,4.54l0-0.02L2.28,9.96
			c-2.23,1.44-2.91,3.88-1.64,6.1l4.75,8.45L9.76,32.29L9.76,32.29L9.76,32.29z M3.78,13.65c0.48-1.78,2.32-2.84,4.1-2.36
			c1.77,0.47,2.84,2.31,2.36,4.09c-0.48,1.78-2.32,2.84-4.09,2.36C4.38,17.26,3.31,15.43,3.78,13.65z"/>
	</g>
	<g>
		<path class="st1" d="M18,25.9l4.22-15.76l6.73,1.8l-0.57,2.13l-4.47-1.2l-1.28,4.78l3.9,1.04l-0.57,2.13l-3.9-1.04l-1.8,6.73
			L18,25.9z"/>
		<path class="st1" d="M27.3,28.4l4.22-15.76l3.63,0.97c2.66,0.71,3.57,2.61,2.74,5.7c-0.25,0.93-0.6,1.68-1.07,2.25
			c-0.46,0.57-1.11,0.96-1.94,1.17l0.51,7.85l-2.39-0.64l-0.3-7.29l-1.35-0.36L29.56,29L27.3,28.4z M33.21,15.36l-1.32,4.92
			l1.28,0.34c0.4,0.11,0.73,0.14,1,0.09c0.27-0.05,0.49-0.16,0.68-0.33c0.17-0.18,0.32-0.41,0.45-0.7c0.12-0.29,0.24-0.64,0.35-1.03
			s0.18-0.75,0.22-1.07s0.02-0.6-0.06-0.86c-0.17-0.49-0.65-0.84-1.43-1.05L33.21,15.36z"/>
		<path class="st1" d="M37.84,31.22l4.22-15.76l6.73,1.8l-0.57,2.13l-4.47-1.2l-1.24,4.63l3.9,1.04l-0.57,2.13l-3.9-1.04l-1.24,4.63
			l4.47,1.2l-0.6,2.26L37.84,31.22z"/>
		<path class="st1" d="M47.13,33.71l4.22-15.76l6.73,1.8l-0.57,2.13l-4.47-1.2l-1.24,4.63l3.9,1.04l-0.57,2.13l-3.9-1.04L50,32.06
			l4.47,1.2l-0.6,2.26L47.13,33.71z"/>
	</g>
</g>
</svg>
