<svg xmlns="http://www.w3.org/2000/svg" width="98" height="20" viewBox="0 0 98 20">
    <g fill="#FFF" fill-rule="evenodd">
        <path d="M23.293.35a1.572 1.572 0 0 1 1.364.782c.137.234.215.506.215.797v15.892a1.572 1.572 0 0 1-.782 1.363 1.572 1.572 0 0 1-.797.216 1.572 1.572 0 0 1-1.364-.782 1.572 1.572 0 0 1-.215-.797V1.929a1.572 1.572 0 0 1 .782-1.363c.234-.137.506-.216.797-.216zM1.58.35c.871 0 1.578.707 1.578 1.58v15.89a1.58 1.58 0 0 1-3.158 0V1.93C0 1.056.707.35 1.58.35z"/>
        <rect width="3.158" height="12.446" x="7.304" y="3.998" rx="1.579"/>
        <rect width="3.158" height="7.082" x="14.41" y="7" rx="1.579"/>
        <path d="M50.672 19h-3.536V6.078L41.832 19h-2.99L33.538 6.182V19h-3.432V.566h4.732l5.538 13.312L45.784.566h4.888V19zm6.396-7.852h5.72c-.052-1.274-.884-2.522-2.86-2.522-1.794 0-2.782 1.352-2.86 2.522zm6.058 3.328l2.886.858c-.65 2.21-2.678 4.056-5.824 4.056-3.51 0-6.604-2.522-6.604-6.838 0-4.082 3.016-6.734 6.292-6.734 3.952 0 6.318 2.522 6.318 6.63 0 .494-.052 1.014-.052 1.066H56.99c.078 1.69 1.508 2.912 3.224 2.912 1.612 0 2.496-.806 2.912-1.95zm10.062-12.09v3.822h2.574v3.068h-2.574v5.356c0 1.118.52 1.482 1.508 1.482.416 0 .884-.052 1.066-.104v2.86c-.312.13-.936.312-1.95.312-2.496 0-4.056-1.482-4.056-3.952V9.276h-2.314V6.208h.65c1.352 0 1.976-.884 1.976-2.028V2.386h3.12zm7.956 10.166c0 2.314 1.326 3.822 3.198 3.822 1.794 0 3.146-1.482 3.146-3.822s-1.326-3.718-3.146-3.718c-1.846 0-3.198 1.378-3.198 3.718zm6.37 4.862v-.156c-.546 1.222-1.872 2.106-3.588 2.106-3.77 0-6.266-2.938-6.266-6.812 0-3.744 2.444-6.708 6.162-6.708 2.288 0 3.354 1.222 3.666 1.95V6.208h3.354v10.478c0 1.144.078 2.028.104 2.314h-3.302a10.38 10.38 0 0 1-.13-1.586zM97.992 19h-3.458V.176h3.458V19z"/>
    </g>
</svg>
