<?xml version="1.0" encoding="utf-8"?>
<!-- Generator: Adobe Illustrator 23.0.1, SVG Export Plug-In . SVG Version: 6.00 Build 0)  -->
<svg version="1.1" id="Layer_1" xmlns="http://www.w3.org/2000/svg" xmlns:xlink="http://www.w3.org/1999/xlink" x="0px" y="0px"
	 viewBox="0 0 74.07 69.57" style="enable-background:new 0 0 74.07 69.57;" xml:space="preserve">
<style type="text/css">
	.st0{clip-path:url(#SVGID_2_);fill:#FFCC05;}
	.st1{fill:#FFFFFF;}
</style>
<g>
	<defs>
		<path id="SVGID_1_" d="M0.19,21.05c-0.05-1.61,0.14-3.2,0.41-4.78c0.47-2.7,1.34-5.25,2.81-7.58c1.37-2.16,3.16-3.86,5.36-5.13
			s4.57-2.1,7.05-2.62c1.61-0.34,3.23-0.54,4.87-0.65c1.77-0.12,3.54-0.1,5.3-0.1c1.11,0,2.23,0.04,3.34,0.07
			c1.09,0.02,2.18,0.04,3.27,0.07c1.24,0.04,2.48,0.07,3.72,0.14c4.36,0.26,8.69,0.72,12.99,1.5c3.57,0.65,6.94,1.87,10.09,3.69
			c2.54,1.47,4.91,3.18,7.03,5.2c2.02,1.93,3.68,4.12,4.89,6.65c0.61,1.28,1.09,2.62,1.46,3.99c0.43,1.58,0.72,3.19,0.91,4.82
			c0.11,1.03,0.16,2.06,0.17,3.1c0.01,1.23,0.01,2.47-0.11,3.7c-0.18,1.76-0.5,3.49-0.93,5.2c-0.85,3.34-2.03,6.57-3.44,9.7
			c-1.89,4.2-4.38,8-7.57,11.33c-2.29,2.38-4.8,4.48-7.6,6.21c-3.06,1.9-6.35,3.16-9.94,3.6c-1.17,0.14-2.35,0.24-3.54,0.22
			c-3.38-0.05-6.67-0.58-9.84-1.81c-1.97-0.76-3.83-1.75-5.61-2.89c-3.23-2.07-6.21-4.45-9-7.07c-2.34-2.2-4.43-4.62-6.22-7.29
			c-1.54-2.31-2.87-4.73-4.07-7.22c-1.48-3.06-2.69-6.22-3.64-9.49C1.84,31.77,1.38,29.9,1,28.01c-0.33-1.66-0.56-3.34-0.7-5.03
			C0.24,22.34,0.22,21.69,0.19,21.05z"/>
	</defs>
	<clipPath id="SVGID_2_">
		<use xlink:href="#SVGID_1_"  style="overflow:visible;"/>
	</clipPath>
	<rect x="0.01" y="0" class="st0" width="74.06" height="69.58"/>
</g>
<g>
	<path class="st1" d="M23.38,33.36v5.68h-3.52V23.25h5.95c3.21,0,5.41,2.12,5.41,5.06c0,2.98-2.2,5.06-5.41,5.06H23.38z
		 M25.45,30.33c1.34,0,2.25-0.78,2.25-2c0-1.27-0.91-2.03-2.25-2.03H23.4v4.03H25.45z"/>
	<path class="st1" d="M43.65,33.49c0,3.43-2.56,5.88-5.88,5.88c-3.3,0-5.88-2.45-5.88-5.88c0-3.43,2.58-5.86,5.88-5.86
		C41.08,27.63,43.65,30.06,43.65,33.49z M40.26,33.49c0-1.87-1.2-2.74-2.49-2.74c-1.27,0-2.49,0.87-2.49,2.74
		c0,1.85,1.23,2.76,2.49,2.76C39.06,36.25,40.26,35.36,40.26,33.49z"/>
	<path class="st1" d="M45.83,43.27v-15.3h3.27v1.14c0.47-0.71,1.67-1.4,3.25-1.4c3.21,0,5.15,2.45,5.15,5.77
		c0,3.39-2.18,5.81-5.28,5.81c-1.43,0-2.49-0.49-3.01-1.11v5.1H45.83z M51.66,30.75c-1.31,0-2.49,0.89-2.49,2.74
		c0,1.83,1.18,2.76,2.49,2.76c1.34,0,2.52-0.91,2.52-2.76C54.18,31.64,53,30.75,51.66,30.75z"/>
</g>
</svg>
