<svg xmlns="http://www.w3.org/2000/svg" width="31" height="28" viewBox="0 0 31 28">
    <path fill="#FFF" fill-rule="nonzero" d="M31 14.212c-.07-1.905-1.644-3.392-3.524-3.327a3.384 3.384 0 0 0-2.227.958 16.369 16.369 0 0 0-8.961-2.91l1.51-7.375 4.98 1.063c.14 1.3 1.285 2.24 2.564 2.099 1.278-.141 2.204-1.305 2.065-2.604-.139-1.299-1.284-2.24-2.563-2.098a2.302 2.302 0 0 0-1.759 1.158L17.381.018a.721.721 0 0 0-.862.558v.012l-1.718 8.205a16.49 16.49 0 0 0-9.077 2.91 3.356 3.356 0 0 0-4.802.152 3.487 3.487 0 0 0 .15 4.878c.267.253.573.47.915.623a7.803 7.803 0 0 0 0 1.04C1.987 23.692 8.06 28 15.553 28c7.492 0 13.566-4.302 13.566-9.604a7.803 7.803 0 0 0 0-1.04A3.458 3.458 0 0 0 31 14.212zM7.725 16.58c0-1.305 1.047-2.368 2.331-2.368s2.331 1.063 2.331 2.368-1.047 2.369-2.331 2.369a2.358 2.358 0 0 1-2.331-2.369zm13.52 6.5a8.84 8.84 0 0 1-5.75 1.823 8.84 8.84 0 0 1-5.751-1.822.649.649 0 0 1 .086-.9.62.62 0 0 1 .799 0 7.52 7.52 0 0 0 4.842 1.487 7.574 7.574 0 0 0 4.865-1.44.648.648 0 0 1 .92.012.673.673 0 0 1-.011.935v-.094zm-.417-4.049c-1.284 0-2.331-1.064-2.331-2.368 0-1.305 1.047-2.369 2.331-2.369s2.332 1.064 2.332 2.369c.052 1.304-.95 2.403-2.234 2.456h-.115l.017-.088z"/>
</svg>
