<svg xmlns="http://www.w3.org/2000/svg" width="32" height="28" viewBox="0 0 32 28">
    <path fill="#FFF" fill-rule="nonzero" d="M.565 13.426l7.374 2.766 2.854 9.224a.866.866 0 0 0 1.378.417l4.11-3.367a1.22 1.22 0 0 1 1.495-.042l7.413 5.409a.868.868 0 0 0 1.362-.529l5.43-26.251A.87.87 0 0 0 30.818.06L.557 11.792c-.747.29-.74 1.352.008 1.634zm9.768 1.293l14.41-8.92c.259-.159.526.193.303.4L13.153 17.31a2.48 2.48 0 0 0-.764 1.483l-.405 3.017c-.054.403-.616.443-.727.053L9.699 16.36a1.462 1.462 0 0 1 .634-1.64z"/>
</svg>
