<svg xmlns="http://www.w3.org/2000/svg" width="35" height="28" viewBox="0 0 35 28">
    <path fill="#FFF" fill-rule="nonzero" d="M34.801 3.41a.775.775 0 0 0-.91-.156c-.19.094-.548.219-.972.342.536-.694.966-1.47 1.156-2.169a.732.732 0 0 0-.3-.797.779.779 0 0 0-.871 0c-.413.28-2.403 1.122-3.662 1.395-2.844-2.427-6.153-2.679-9.594-.722-2.797 1.59-3.406 4.824-3.287 6.796-6.402-.6-10.381-3.894-12.621-6.62a.788.788 0 0 0-.647-.277.77.77 0 0 0-.602.362C1.43 3.305 1.138 5.23 1.644 7.132a7.834 7.834 0 0 0 1.323 2.694c-.27-.13-.53-.291-.775-.484a.781.781 0 0 0-.806-.095.741.741 0 0 0-.434.67c0 3.266 2.097 5.444 4.055 6.583a5.811 5.811 0 0 1-.98-.205.775.775 0 0 0-.794.22.724.724 0 0 0-.122.794c1.1 2.37 3.185 4 5.765 4.592-2.252 1.288-5.267 1.92-8.027 1.61a.755.755 0 0 0-.811.506.732.732 0 0 0 .35.875C4.575 27.182 8.36 28 11.633 28c4.762 0 8.436-1.731 10.673-3.18 6.031-3.897 9.79-10.896 9.266-17.158.966-.696 2.412-1.98 3.308-3.36a.718.718 0 0 0-.079-.891z"/>
</svg>
